<svg version="1.2" xmlns="http://www.w3.org/2000/svg" viewBox="0 0 400 400" width="400" height="400">
	<title>8046-ai</title>
	<style>
		.s0 { fill: #e3bc43 } 
		.s1 { fill: none;stroke: #e3bc43;stroke-miterlimit:10;stroke-width: 15 } 
	</style>
	<g id="_Artboards_">
	</g>
	<g id="Layer 1">
		<g id="&lt;Group&gt;">
			<g id="Folder 1">
				<path id="&lt;Compound Path&gt;" fill-rule="evenodd" class="s0" d="m105.5 278.3c-2.2-2.6-3.4-5.6-3.5-8.9-0.1-3.8 1.3-8.9 7.8-12.7l20.4-12c0 0 0.2-0.1 0.2-0.1q0.2-0.1 0.4-0.2c1.5-0.6 5.2-2.2 8.1-2.2 5.2 0 9.6 2.2 12.8 6.2 7.3 7.9 15 13.9 23 17.9v-34.7c-25.4-4.7-44.2-15.1-56-30.9-7.6-10.1-11.6-21.8-11.8-34.9-0.5-26.5 13.9-46.7 42.8-59.8 7.5-3.5 15.9-6 25-7.6v-16.2c0-8.9 7.2-16.2 16.1-16.2h20.1c8.9 0 16.1 7.3 16.1 16.2v16.9c21.2 4.5 38.9 14.7 52.7 30.3 2.9 2.8 4.4 6.3 4.4 10.1-0.1 3.3-1.4 8.1-7.1 11.8l-22.5 14.1q-0.3 0.2-0.7 0.3c-0.6 0.4-5.1 2.6-9 2.5-4.8 0-9-1.6-12.7-4.6q-2.5-2.2-5.1-4v24.2c25.8 4.3 45.3 14.2 58.1 29.4 8.6 10.4 12.8 23.2 12.5 38-0.5 23.4-10.9 42-31.1 55.3-11.2 7.4-24.5 12.5-39.5 15.2v14.2c0 8.9-7.2 16.2-16.1 16.2h-20.1c-8.9 0-16.1-7.3-16.1-16.2v-14.2c-17.3-3.4-33-10.5-46.9-21.1-9.2-7-16.7-14.5-22.3-22.3zm7-9.1c0 0.6 0.1 1.4 1.1 2.4q0.1 0.2 0.3 0.4c5 7 11.8 13.8 20.3 20.2 13.6 10.5 29.3 17.2 46.5 19.9 2.6 0.4 4.5 2.6 4.5 5.2v18.6c0 3.1 2.5 5.7 5.6 5.7h20.1c3.1 0 5.6-2.6 5.6-5.7v-18.6c0-2.6 2-4.8 4.5-5.2 15.3-2.3 28.7-7.1 39.8-14.4 17.3-11.4 25.9-26.7 26.3-46.7 0.2-12.4-3.1-22.6-10.1-31.1-11.7-14-30.6-22.9-55.9-26.4-2.6-0.4-4.6-2.6-4.6-5.2v-37.7c0-1.8 1-3.5 2.5-4.5 1.5-0.9 3.4-1.1 5-0.3 5.3 2.5 10.2 5.8 14.9 9.8q2.5 2.1 5.9 2.1c1 0 3.2-0.8 4.4-1.4l22.2-13.9c2.2-1.4 2.2-2.5 2.2-3.1 0-0.6-0.1-1.4-1.2-2.4q-0.3-0.2-0.4-0.4c-13.2-14.9-30.3-24.3-51.1-27.9-2.5-0.4-4.4-2.6-4.4-5.2v-21.2c0-3.1-2.5-5.7-5.6-5.7h-20.1c-3.1 0-5.6 2.6-5.6 5.7v20.7c0 2.6-2 4.8-4.6 5.2-9.8 1.3-18.8 3.8-26.6 7.4-25.1 11.4-37 27.8-36.6 50.1 0.2 11 3.4 20.4 9.7 28.8 10.8 14.5 28.8 23.8 53.6 27.6 2.6 0.4 4.5 2.6 4.5 5.2v47c0 1.7-0.9 3.3-2.3 4.3-1.4 1-3.1 1.3-4.7 0.7-12.2-4.3-23.7-12.3-34.3-23.8q-0.2-0.2-0.3-0.4c-1.3-1.6-2.7-2.3-4.7-2.3-0.6 0.1-2.4 0.7-3.7 1.2l-20.2 11.9c-2.5 1.5-2.5 2.7-2.5 3.4z"/>
				<path id="&lt;Compound Path&gt;" fill-rule="evenodd" class="s0" d="m185.2 183c0 1.7-0.9 3.3-2.3 4.3-0.9 0.6-2 0.9-3 0.9q-1 0-1.9-0.3c-13.6-5.3-16.5-14.9-16.6-22q0 0 0 0c0-6.1 2.5-14.7 14.7-20.5q0.2-0.1 0.4-0.2l1.5-0.6c1.6-0.6 3.4-0.4 4.9 0.6 1.4 1 2.3 2.6 2.3 4.3zm-10.5-24c-2.4 2.6-2.8 5-2.8 6.9 0.1 2.4 0.5 5.1 2.8 7.7z"/>
				<path id="&lt;Compound Path&gt;" fill-rule="evenodd" class="s0" d="m216.5 273.5v-41.3c0-1.7 0.8-3.2 2.2-4.2 1.3-1 3.1-1.3 4.7-0.8 16.5 5.2 19.9 15.9 19.9 24-0.1 10.4-5.1 18.8-14.4 24.5-1.6 1-3.4 1.9-4.9 2.6q-1.1 0.5-2.2 0.5c-1 0-2-0.3-2.8-0.9-1.5-0.9-2.5-2.6-2.5-4.4zm10.5-9.4c3.9-3.4 5.7-7.6 5.8-13 0-3.4-0.8-7.5-5.8-10.8z"/>
			</g>
			<path id="Shape 1" class="s1" d="m199.5 373c-92.6 0-167.5-74.9-167.5-167.5 0-92.6 74.9-167.5 167.5-167.5 92.6 0 167.5 74.9 167.5 167.5 0 92.6-74.9 167.5-167.5 167.5z"/>
		</g>
		<path id="Shape 2" class="s1" d="m77.3 91.7l3.3-3.6 243.8 225.1-3.3 3.6z"/>
	</g>
</svg>