<svg version="1.2" xmlns="http://www.w3.org/2000/svg" viewBox="0 0 512 358" width="512" height="358">
	<title>cash_1606573</title>
	<style>
		.s0 { fill: #ffbc05 } 
		.s1 { fill: none;stroke: #e3bc43;stroke-miterlimit:10;stroke-width: 15 } 
	</style>
	<path id="&lt;Path&gt;" class="s0" d="m267.8 164.1c-21.8-8.5-30.8-14.5-30.8-24.9 0-8.5 6.3-17.7 24-17.7 17.2 0 28.5 5.8 34.4 8.7l6.9-23.3c-7.9-4.1-18.9-8-34.9-8.5v-23.4h-20.8v24.7c-25.5 4.6-40.8 21.4-40.8 43.2 0 23.4 17.4 35.7 43.9 45.3 18.8 6.9 27.7 14 27.7 25.7 0 12-10.9 19.8-27 19.8-15.3 0-29.5-5.2-39.5-11.1l-6.9 24c9.2 5.8 25.2 10.5 41.1 11v24.7h20.8v-26.1c27.8-4.7 42.8-23.6 42.8-45.1 0-22.8-12.6-36.3-40.9-47z"/>
	<path id="Shape 3" class="s1" d="m354.4 222.6l-0.4-5 57.3-14 62.7 5.4 0.4 5-61.7-5.7z"/>
	<path id="Shape 3 copy" class="s1" d="m180 117.6l0.4 5-57.4 14-62.6-5.3-0.4-5 61.7 5.7z"/>
	<path id="Shape 1" class="s1" d="m0 60c0 0 51.1 39.1 148.5 27 40.5-5.1 192-61.5 255.5-59 19.5 0.8 71.5 3.5 108 29v242c0 0-67-63.5-212-9-21.1 8-132.5 38-181 41-11.5 0.7-81 2.5-119-33 0-44 0-238 0-238z"/>
</svg>