<svg version="1.2" xmlns="http://www.w3.org/2000/svg" viewBox="0 0 576 372" width="576" height="372">
	<title>fa70dd86-e0ce-4c8a-862d-3bad8b199603-ai</title>
	<style>
		.s0 { fill: #ffaa00 } 
		.s1 { fill: none;stroke: #e3bc43;stroke-miterlimit:10;stroke-width: 15 } 
	</style>
	<g id="background">
	</g>
	<g id="Objects">
		<g id="&lt;Group&gt;">
		</g>
		<g id="&lt;Group&gt;">
			<path id="&lt;Path&gt;" class="s0" d="m302.5 170.9c-22.7-8.9-32.1-15.1-32.1-26 0-8.8 6.5-18.5 25-18.5 18 0 29.7 6.1 35.9 9.2l7.2-24.3c-8.3-4.3-19.7-8.4-36.4-8.9v-24.4h-21.7v25.7c-26.6 4.8-42.5 22.4-42.5 45.1 0 24.4 18.1 37.2 45.8 47.2 19.6 7.2 28.8 14.6 28.8 26.7 0 12.5-11.3 20.7-28.1 20.7-16 0-30.8-5.4-41.2-11.6l-7.2 25c9.6 6.1 26.3 11 42.8 11.5v25.8h21.8v-27.3c28.9-4.9 44.5-24.6 44.5-47 0-23.7-13.1-37.8-42.6-48.9z"/>
			<path id="Shape 3" class="s1" d="m386.4 223.6l-0.4-5 57.3-14 62.7 5.4 0.4 5-61.7-5.7z"/>
			<path id="Shape 3 copy" class="s1" d="m212 118.6l0.4 5-57.4 14-62.6-5.3-0.4-5 61.7 5.7z"/>
			<path id="Shape 1" class="s1" d="m32 60c0 0 51.1 39.1 148.5 27 40.5-5.1 192-61.5 255.5-59 19.5 0.8 71.5 3.5 108 29v242c0 0-67-63.5-212-9-21.1 8-132.5 38-181 41-11.5 0.7-81 2.5-119-33 0-44 0-238 0-238z"/>
		</g>
		<g id="&lt;Group&gt;">
		</g>
		<g id="&lt;Group&gt;">
		</g>
	</g>
</svg>