<svg version="1.2" xmlns="http://www.w3.org/2000/svg" viewBox="0 0 192 183" width="192" height="183">
	<title>26859-ai</title>
	<style>
		.s0 { fill: #000201 } 
	</style>
	<g id="&lt;Group&gt;">
		<g id="&lt;Group&gt;">
			<path id="&lt;Path&gt;" class="s0" d="m72.3 177.2c-2.3 0-4.7-1-6.2-3-2.8-3.5-2.2-8.5 1.3-11.2l85.4-67.9-85.4-67.8c-3.5-2.7-4.1-7.7-1.3-11.2 2.7-3.5 7.7-4.1 11.2-1.3l93.4 74.1c1.9 1.5 3 3.8 3 6.2 0 2.5-1.1 4.8-3 6.3l-93.4 74.1c-1.5 1.2-3.2 1.7-5 1.7z"/>
			<path id="&lt;Path&gt; copy" class="s0" d="m27.3 177.2c-2.3 0-4.7-1-6.2-3-2.8-3.5-2.2-8.5 1.3-11.2l85.4-67.9-85.4-67.8c-3.5-2.7-4.1-7.7-1.3-11.2 2.7-3.5 7.7-4.1 11.2-1.3l93.4 74.1c1.9 1.5 3 3.8 3 6.2 0 2.5-1.1 4.8-3 6.3l-93.4 74.1c-1.5 1.2-3.2 1.7-5 1.7z"/>
		</g>
		<g id="&lt;Group&gt;">
		</g>
	</g>
</svg>