<?xml version="1.0" encoding="utf-8"?>
<!-- Generator: Adobe Illustrator 24.2.3, SVG Export Plug-In . SVG Version: 6.00 Build 0)  -->
<svg version="1.1" id="Layer_1" xmlns="http://www.w3.org/2000/svg" xmlns:xlink="http://www.w3.org/1999/xlink" x="0px" y="0px"
	 viewBox="0 0 400 400" style="enable-background:new 0 0 400 400;" xml:space="preserve">
<style type="text/css">
	.st0{fill:#FFFFFF;}
	.st1{fill:#01426D;}
	.st2{fill:#262728;}
</style>
<path class="st0" d="M91.78,237.98c0-3.54,0-7.08,0-10.66c2.19,0,4.33,0,6.52,0c0,3.49,0,6.97,0,10.54c0.27,0,0.5,0,0.72,0
	c6.3,0,12.59-0.02,18.89,0.02c1.34,0.01,2.4-0.5,3.44-1.23c1.26-0.9,2-2.19,2.65-3.54c0,1.62,0,3.25,0,4.87
	C113.26,237.98,102.52,237.98,91.78,237.98z"/>
<path class="st0" d="M73.83,237.98c0-3.54,0-7.08,0-10.66c2.19,0,4.34,0,6.42,0c0,3.56,0,7.11,0,10.66
	C78.11,237.98,75.97,237.98,73.83,237.98z"/>
<path class="st0" d="M82.99,237.98c0-3.54,0-7.08,0-10.66c2.06,0,4.08,0,6.18,0c0,3.55,0,7.1,0,10.66
	C87.11,237.98,85.05,237.98,82.99,237.98z"/>
<path class="st1" d="M124,168.56c0,14.46,0,28.93,0,43.39c-4.41,0-8.82,0-13.31,0c0-1.83,0-3.58,0-5.33c-16.44,0-32.82,0-49.26,0
	c0,1.78,0,3.53,0,5.27c-4.46,0-8.84,0-13.26,0c0-0.18,0-0.32,0-0.46c0-14.1,0-28.21,0.01-42.31c0-0.77-0.03-1.56,0.14-2.29
	c0.63-2.68,2.84-4.65,5.59-4.65c21.43-0.02,42.86-0.01,64.3-0.01c0.31,0,0.62,0.06,0.93,0.11c2.53,0.35,4.94,2.98,4.73,5.64
	C123.85,168.13,123.95,168.34,124,168.56z M71.83,202.62c0.06,0.02,0.11,0.04,0.17,0.06c3.78-4.39,7.56-8.78,11.37-13.21
	c0.22,0.24,0.4,0.44,0.58,0.64c3.36,3.82,6.72,7.64,10.07,11.47c0.26,0.3,0.52,0.41,0.91,0.41c2.5-0.02,4.99-0.01,7.49-0.01
	c0.18,0,0.36-0.02,0.65-0.03c-5.2-5.92-10.3-11.73-15.44-17.57c4.69-5.44,9.35-10.85,14.08-16.34c-0.23-0.03-0.3-0.05-0.38-0.05
	c-2.62,0-5.23-0.02-7.85,0.02c-0.26,0-0.58,0.23-0.76,0.44c-4.52,5.21-9.02,10.42-13.52,15.64c-0.09,0.1-0.2,0.19-0.39,0.37
	c0-5.56,0-10.98,0-16.48c-0.26,0-0.47,0-0.68,0c-1.84,0-3.68,0-5.53,0c-0.78,0-0.78,0-0.78,0.78c0,11.07,0,22.15,0,33.22
	C71.83,202.2,71.83,202.41,71.83,202.62z"/>
<path d="M124,213.97c0,6.38,0,12.76,0,19.14c-0.65,1.35-1.38,2.64-2.65,3.54c-1.03,0.73-2.1,1.24-3.44,1.23
	c-6.3-0.04-12.59-0.02-18.89-0.02c-0.23,0-0.45,0-0.72,0c0-3.57,0-7.05,0-10.54c-2.19,0-4.33,0-6.52,0c0,3.58,0,7.12,0,10.66
	c-0.87,0-1.74,0-2.62,0c0-3.55,0-7.11,0-10.66c-2.1,0-4.12,0-6.18,0c0,3.58,0,7.12,0,10.66c-0.91,0-1.82,0-2.73,0
	c0-3.55,0-7.1,0-10.66c-2.08,0-4.23,0-6.42,0c0,3.58,0,7.12,0,10.66c-6.89,0-13.79,0-20.68,0c-0.08-0.04-0.16-0.09-0.24-0.12
	c-1.5-0.44-2.83-1.14-3.81-2.43c-0.88-1.16-0.91-2.52-0.92-3.84c-0.05-5.68-0.02-11.37-0.02-17.05c0-0.17,0-0.34,0-0.52
	c0.11-0.03,0.17-0.05,0.22-0.05c5.3,0.04,10.6,0.1,15.9,0.1c1.94,0,3.8,0.27,5.57,1.08c1.13,0.52,2.02,1.29,2.56,2.54
	c8.98,0,18,0,27.05,0c0.35-1.02,1.13-1.77,2.01-2.44c1.47-1.11,3.21-1.26,4.94-1.28C112.28,213.94,118.14,213.97,124,213.97z"/>
<path class="st0" d="M124,213.97c-5.86,0-11.72-0.03-17.59,0.02c-1.73,0.01-3.47,0.16-4.94,1.28c-0.88,0.67-1.66,1.41-2.01,2.44
	c-9.06,0-18.08,0-27.05,0c-0.54-1.25-1.43-2.02-2.56-2.54c-1.77-0.82-3.63-1.08-5.57-1.08c-5.3-0.01-10.6-0.07-15.9-0.1
	c-0.05,0-0.11,0.02-0.22,0.05c0,0.17,0,0.34,0,0.52c0,5.68-0.03,11.37,0.02,17.05c0.01,1.32,0.04,2.68,0.92,3.84
	c0.98,1.29,2.3,1.99,3.81,2.43c0.08,0.02,0.16,0.08,0.24,0.12c-1.7,0-3.41,0-5.11,0c0-25.32,0-50.64,0-75.96
	c25.32,0,50.64,0,75.96,0c0,2.18,0,4.36,0,6.54c-0.05-0.21-0.15-0.43-0.13-0.64c0.22-2.67-2.2-5.29-4.73-5.64
	c-0.31-0.04-0.62-0.11-0.93-0.11c-21.43-0.01-42.87-0.01-64.3,0.01c-2.75,0-4.96,1.97-5.59,4.65c-0.17,0.73-0.14,1.53-0.14,2.29
	c-0.01,14.1-0.01,28.21-0.01,42.31c0,0.14,0,0.27,0,0.46c4.41,0,8.8,0,13.26,0c0-1.73,0-3.48,0-5.27c16.44,0,32.82,0,49.26,0
	c0,1.75,0,3.5,0,5.33c4.48,0,8.89,0,13.31,0C124,212.62,124,213.29,124,213.97z"/>
<path class="st0" d="M71.83,202.62c0-0.21,0-0.42,0-0.63c0-11.07,0-22.15,0-33.22c0-0.78,0-0.78,0.78-0.78c1.84,0,3.68,0,5.53,0
	c0.21,0,0.43,0,0.68,0c0,5.5,0,10.92,0,16.48c0.19-0.18,0.3-0.27,0.39-0.37c4.51-5.21,9.01-10.43,13.52-15.64
	c0.19-0.21,0.5-0.44,0.76-0.44c2.61-0.03,5.23-0.02,7.85-0.02c0.08,0,0.15,0.02,0.38,0.05c-4.73,5.49-9.39,10.9-14.08,16.34
	c5.13,5.84,10.24,11.65,15.44,17.57c-0.29,0.01-0.47,0.03-0.65,0.03c-2.5,0-4.99-0.01-7.49,0.01c-0.39,0-0.66-0.11-0.91-0.41
	c-3.35-3.83-6.71-7.65-10.07-11.47c-0.18-0.2-0.36-0.4-0.58-0.64c-3.81,4.43-7.59,8.82-11.37,13.21
	C71.95,202.65,71.89,202.63,71.83,202.62z"/>
<path class="st2" d="M104.59,225.02"/>
<g>
	<g>
		<path d="M163.01,208.54h-5.4l-10.3-12.75l-9.95,13.55v-33.35h4.25v20.55l15-20.55h5.15l-11.9,16.25L163.01,208.54z"/>
		<path d="M198.26,175.99v4.2h-11.05v28.35h-4.25v-28.35h-11.05v-4.2H198.26z"/>
		<path d="M208.81,208.54v-32.55h20.8v4.2h-16.65v9.95h12.75v4.2h-12.75v10.05h16.65v4.15H208.81z"/>
		<path d="M245.61,186.39v22.15h-4.2v-33.05l21.15,22.85v-22.35h4.15v33.35L245.61,186.39z"/>
		<path d="M284.56,202.24l-2.9,6.3h-4.6l15.25-32.9l14.45,32.9h-4.55l-2.75-6.3H284.56z M292.16,185.74l-5.7,12.35h11.2
			L292.16,185.74z"/>
		<path d="M338.01,195.12c0.93,1.42,1.4,2.91,1.4,4.47c0,1.3-0.32,2.54-0.97,3.73s-1.58,2.21-2.78,3.07
			c-1.1,0.83-2.36,1.47-3.77,1.9c-1.42,0.43-2.89,0.65-4.42,0.65c-3.27,0-6.03-0.85-8.3-2.55c-1.7-1.23-2.83-2.77-3.4-4.6l3.9-2.2
			c0,0.9,0.36,1.75,1.08,2.55c0.72,0.8,1.67,1.44,2.88,1.93s2.48,0.72,3.85,0.72c1.37,0,2.65-0.24,3.85-0.72s2.15-1.12,2.85-1.9
			c0.7-0.78,1.05-1.64,1.05-2.58c0-0.77-0.25-1.51-0.75-2.22s-1.22-1.33-2.15-1.83c-0.97-0.5-2.68-0.9-5.15-1.2
			c-2.73-0.23-4.8-0.72-6.2-1.45c-1.73-0.8-3.08-1.91-4.05-3.32s-1.45-2.94-1.45-4.58c0-1.3,0.32-2.54,0.97-3.73
			c0.65-1.18,1.56-2.21,2.72-3.07c2.33-1.7,5.1-2.55,8.3-2.55c1.53,0,3,0.22,4.4,0.65c1.4,0.43,2.67,1.07,3.8,1.9
			c1.67,1.23,2.82,2.77,3.45,4.6l-3.9,2.2c0-0.9-0.36-1.75-1.08-2.55c-0.72-0.8-1.67-1.43-2.85-1.9s-2.46-0.7-3.82-0.7
			c-1.4,0-2.7,0.23-3.9,0.7s-2.15,1.09-2.85,1.88c-0.7,0.78-1.05,1.64-1.05,2.58c0,0.8,0.3,1.59,0.9,2.38s1.35,1.38,2.25,1.77
			c0.67,0.33,1.58,0.59,2.75,0.78c1.17,0.18,1.88,0.29,2.15,0.33c1.37,0.17,2.58,0.37,3.65,0.6c1.07,0.23,2.05,0.58,2.95,1.05
			C335.84,192.62,337.08,193.7,338.01,195.12z"/>
	</g>
	<g>
		<path d="M171.09,228.52l-0.73,1.39h-1.17l3.86-7.24l3.66,7.24h-1.15l-0.7-1.39H171.09z M173.02,224.89l-1.44,2.72h2.84
			L173.02,224.89z"/>
		<path d="M184.4,222.75v0.92h-2.8v6.24h-1.08v-6.24h-2.8v-0.92H184.4z"/>
		<path d="M193.58,222.75v0.92h-2.8v6.24h-1.08v-6.24h-2.8v-0.92H193.58z"/>
		<path d="M199.56,229.98c-0.76,0-1.46-0.16-2.1-0.49c-0.64-0.33-1.14-0.77-1.51-1.33c-0.37-0.56-0.56-1.17-0.56-1.83
			s0.19-1.27,0.56-1.83c0.37-0.56,0.88-1,1.51-1.33c0.64-0.33,1.34-0.49,2.1-0.49c0.75,0,1.45,0.16,2.08,0.49s1.14,0.77,1.52,1.33
			c0.38,0.56,0.56,1.17,0.56,1.83s-0.19,1.27-0.56,1.83c-0.38,0.56-0.88,1-1.52,1.33C201,229.81,200.31,229.98,199.56,229.98z
			 M199.56,223.59c-0.57,0-1.09,0.12-1.56,0.37c-0.48,0.25-0.85,0.58-1.13,1s-0.42,0.87-0.42,1.36c0,0.5,0.14,0.96,0.42,1.38
			s0.66,0.75,1.13,1c0.48,0.25,1,0.37,1.56,0.37c0.57,0,1.09-0.12,1.56-0.37c0.48-0.25,0.86-0.58,1.13-1
			c0.28-0.42,0.42-0.88,0.42-1.38c0-0.49-0.14-0.95-0.42-1.36c-0.28-0.42-0.66-0.75-1.13-1
			C200.64,223.72,200.12,223.59,199.56,223.59z"/>
		<path d="M212.23,229.91h-1.33l-3.13-3.84h1.19c0.33,0,0.61-0.02,0.84-0.05c0.23-0.04,0.4-0.07,0.51-0.11
			c0.27-0.1,0.48-0.25,0.63-0.46c0.15-0.2,0.22-0.4,0.22-0.59c0-0.21-0.07-0.4-0.21-0.58c-0.14-0.18-0.35-0.33-0.62-0.44
			s-0.58-0.17-0.94-0.17h-1.91l0.03,6.24h-1.08v-7.16h2.96c0.4,0,0.77,0.05,1.12,0.17c0.35,0.11,0.65,0.27,0.91,0.47
			c0.25,0.2,0.45,0.43,0.59,0.68s0.21,0.52,0.21,0.79c0,0.43-0.15,0.82-0.46,1.17c-0.13,0.15-0.28,0.28-0.46,0.41
			c-0.18,0.12-0.37,0.23-0.56,0.31c-0.31,0.1-0.6,0.15-0.87,0.15L212.23,229.91z"/>
		<path d="M216.11,225.04v4.87h-1.06v-7.27l5.36,5.03v-4.92h1.05v7.34L216.11,225.04z"/>
		<path d="M224.69,229.91v-7.16h5.27v0.92h-4.22v2.19h3.23v0.92h-3.23V229h4.22v0.91H224.69z"/>
		<path d="M236.42,226.49l2.7-3.74h1.27l-3.45,4.71v2.45h-1.05v-2.45l-3.46-4.71h1.25L236.42,226.49z"/>
		<path d="M248.1,226.96c0.24,0.31,0.35,0.64,0.35,0.98c0,0.29-0.08,0.56-0.25,0.82c-0.16,0.26-0.4,0.49-0.7,0.68
			c-0.28,0.18-0.6,0.32-0.96,0.42c-0.36,0.09-0.73,0.14-1.12,0.14c-0.83,0-1.53-0.19-2.1-0.56c-0.43-0.27-0.72-0.61-0.86-1.01
			l0.99-0.48c0,0.2,0.09,0.38,0.27,0.56s0.42,0.32,0.73,0.42c0.3,0.11,0.63,0.16,0.98,0.16c0.35,0,0.67-0.05,0.98-0.16
			c0.3-0.11,0.54-0.25,0.72-0.42c0.18-0.17,0.27-0.36,0.27-0.57c0-0.17-0.06-0.33-0.19-0.49c-0.13-0.16-0.31-0.29-0.54-0.4
			c-0.25-0.11-0.68-0.2-1.3-0.26c-0.69-0.05-1.22-0.16-1.57-0.32c-0.44-0.18-0.78-0.42-1.03-0.73c-0.25-0.31-0.37-0.65-0.37-1.01
			c0-0.29,0.08-0.56,0.25-0.82c0.17-0.26,0.39-0.49,0.69-0.68c0.59-0.37,1.29-0.56,2.1-0.56c0.39,0,0.76,0.05,1.11,0.14
			c0.36,0.09,0.68,0.23,0.96,0.42c0.42,0.27,0.71,0.61,0.87,1.01l-0.99,0.48c0-0.2-0.09-0.39-0.27-0.56
			c-0.18-0.18-0.42-0.32-0.72-0.42s-0.62-0.15-0.97-0.15c-0.36,0-0.68,0.05-0.99,0.15c-0.3,0.1-0.54,0.24-0.72,0.41
			c-0.18,0.17-0.27,0.36-0.27,0.57c0,0.18,0.08,0.35,0.23,0.52c0.15,0.17,0.34,0.3,0.57,0.39c0.17,0.07,0.4,0.13,0.7,0.17
			c0.29,0.04,0.48,0.06,0.54,0.07c0.35,0.04,0.65,0.08,0.92,0.13c0.27,0.05,0.52,0.13,0.75,0.23
			C247.55,226.41,247.87,226.64,248.1,226.96z"/>
		<path d="M257.73,228.52l-0.74,1.39h-1.17l3.86-7.24l3.66,7.24h-1.15l-0.7-1.39H257.73z M259.66,224.89l-1.44,2.72h2.84
			L259.66,224.89z"/>
		<path d="M271.05,222.75v0.92h-2.8v6.24h-1.08v-6.24h-2.8v-0.92H271.05z"/>
		<path d="M278.62,229.91v-7.16h1.08V229h4.19v0.91H278.62z"/>
		<path d="M288.29,228.52l-0.74,1.39h-1.17l3.86-7.24l3.66,7.24h-1.15l-0.7-1.39H288.29z M290.21,224.89l-1.44,2.72h2.84
			L290.21,224.89z"/>
		<path d="M302,227.43l1.76-4.69h1.1l-2.75,7.34l-2.24-4.7l-2.25,4.7l-2.77-7.34h1.1l1.8,4.7l2.13-4.44L302,227.43z"/>
	</g>
	<g>
		<polygon points="163,227.03 137,225.53 163,224.03 		"/>
	</g>
	<g>
		<polygon points="312,224.03 338,225.53 312,227.03 		"/>
	</g>
</g>
<g>
</g>
<g>
</g>
<g>
</g>
<g>
</g>
<g>
</g>
<g>
</g>
<g>
</g>
<g>
</g>
<g>
</g>
<g>
</g>
<g>
</g>
<g>
</g>
<g>
</g>
<g>
</g>
<g>
</g>
</svg>
