<svg id="evejzp0tg79l1" xmlns="http://www.w3.org/2000/svg" xmlns:xlink="http://www.w3.org/1999/xlink" viewBox="0 0 300 100" shape-rendering="geometricPrecision" text-rendering="geometricPrecision"><style>#evejzp0tg79l10_tr {animation: evejzp0tg79l10_tr__tr 5000ms linear infinite normal forwards}@keyframes evejzp0tg79l10_tr__tr { 0% {transform: translate(79.300000px,49.400000px) rotate(0deg)} 100% {transform: translate(79.300000px,49.400000px) rotate(720deg)} }</style><rect id="evejzp0tg79l2" width="8.800000" height="32.800000" rx="0" ry="0" transform="matrix(1 0 0 1 204.59999999999999 32.10000000000000)" fill="rgb(37,37,37)" stroke="none" stroke-width="1"></rect><rect id="evejzp0tg79l3" width="8.800000" height="7.200000" rx="0" ry="0" transform="matrix(1 0 0 1 204.59999999999999 20.60000000000000)" fill="rgb(37,37,37)" stroke="none" stroke-width="1"></rect><path id="evejzp0tg79l4" d="M150.800000,32.100000C146.600000,32.100000,143.900000,33.400000,142,36L142,32.100000L133.200000,32.100000L133.200000,64.900000L142,64.900000L142,47.300000C142,47.300000,142.300000,40.300000,149.300000,40.300000C154.200000,40.300000,156.700000,44.300000,156.700000,46.700000C156.700000,64.700000,156.700000,64.700000,156.700000,64.700000L164.900000,64.700000L164.900000,46C165,46,164,33,150.800000,32.100000Z" fill="rgb(37,37,37)" stroke="none" stroke-width="1"></path><path class="color" id="evejzp0tg79l5" d="M234.600000,32.100000C230.400000,32.100000,227.700000,33.400000,225.800000,36L225.800000,32.100000L217,32.100000L217,64.900000L225.800000,64.900000L225.800000,47.300000C225.800000,47.300000,226.100000,40.300000,233.100000,40.300000C238,40.300000,240.500000,44.300000,240.500000,46.700000C240.500000,64.700000,240.500000,64.700000,240.500000,64.700000L248.700000,64.700000L248.700000,46C248.900000,46,247.800000,33,234.600000,32.100000Z" fill="rgb(37,37,37)" stroke="none" stroke-width="1"></path><path class="color" id="evejzp0tg79l6" d="M193.500000,31.900000L193.500000,35.800000C190.900000,33.600000,187.600000,32.300000,184,32.300000C175.600000,32.300000,168.800000,39.500000,168.800000,48.500000C168.800000,57.500000,175.600000,64.700000,184,64.700000C187.600000,64.700000,190.900000,63.400000,193.500000,61.200000L193.500000,64.900000C193.500000,65.600000,193.400000,66.200000,193.300000,66.900000C192.400000,70.500000,189.200000,73.100000,185.400000,73.100000L185.400000,73.100000C181.600000,73.100000,178.400000,70.400000,177.500000,66.900000L169.600000,66.900000C170.600000,74.800000,177.300000,80.900000,185.500000,80.900000C193.700000,80.900000,200.400000,74.800000,201.400000,66.900000C201.500000,66.200000,201.500000,65.600000,201.500000,64.900000L201.500000,31.900000L193.500000,31.900000ZM184.900000,56.400000C180.500000,56.400000,176.900000,52.800000,176.900000,48.400000C176.900000,44,180.500000,40.400000,184.900000,40.400000C189.300000,40.400000,192.900000,44,192.900000,48.400000C192.900000,52.900000,189.400000,56.400000,184.900000,56.400000Z" fill="rgb(37,37,37)" stroke="none" stroke-width="1"></path><path class="color" id="evejzp0tg79l7" d="M130.400000,51.600000C130.600000,50.600000,130.700000,49.600000,130.700000,48.500000C130.700000,47.500000,130.600000,46.500000,130.400000,45.500000C129,37.800000,122.300000,32,114.300000,32C106.300000,32,99.600000,37.800000,98.200000,45.500000C98,46.500000,97.900000,47.400000,97.900000,48.500000C97.900000,49.600000,98,50.600000,98.200000,51.600000C99.600000,59.200000,106.300000,64.900000,114.300000,64.900000C120.300000,64.900000,125.600000,61.700000,128.400000,56.800000L120.400000,53.800000C118.900000,55.500000,116.700000,56.600000,114.200000,56.600000C110.800000,56.600000,107.900000,54.500000,106.700000,51.600000L121.800000,51.600000L130.400000,51.600000ZM106.700000,45.500000C107.900000,42.500000,110.800000,40.300000,114.300000,40.300000C117.800000,40.300000,120.700000,42.500000,121.900000,45.500000L106.700000,45.500000Z" fill="rgb(37,37,37)" stroke="none" stroke-width="1"></path><path class="color" id="evejzp0tg79l8" d="M283.600000,51.600000C283.800000,50.600000,283.900000,49.600000,283.900000,48.500000C283.900000,47.500000,283.800000,46.500000,283.600000,45.500000C282.200000,37.800000,275.500000,32,267.500000,32C259.500000,32,252.800000,37.800000,251.400000,45.500000C251.200000,46.500000,251.100000,47.400000,251.100000,48.500000C251.100000,49.600000,251.200000,50.600000,251.400000,51.600000C252.800000,59.200000,259.500000,64.900000,267.500000,64.900000C273.500000,64.900000,278.800000,61.700000,281.600000,56.800000L273.600000,53.800000C272.100000,55.500000,269.900000,56.600000,267.400000,56.600000C264,56.600000,261.100000,54.500000,259.900000,51.600000L275,51.600000L283.600000,51.600000ZM259.900000,45.500000C261.100000,42.500000,264,40.300000,267.500000,40.300000C271,40.300000,273.900000,42.500000,275.100000,45.500000L259.900000,45.500000Z" fill="rgb(37,37,37)" stroke="none" stroke-width="1"></path><path id="evejzp0tg79l9" d="M52.500000,41.100000L52.100000,41.100000L42,41.100000L42,48.800000L51.700000,48.800000C49.900000,53.300000,45.400000,56.600000,40.200000,56.600000C33.400000,56.600000,27.800000,51.100000,27.800000,44.300000C27.800000,37.500000,33.300000,32,40.100000,32C42.700000,32,45.100000,32.800000,47.100000,34.200000L53.900000,28.100000C50.200000,25,45.300000,23.100000,40.100000,23.100000C28.300000,23.100000,18.700000,32.600000,18.700000,44.300000C18.700000,56,28.300000,65.500000,40.100000,65.500000C44.700000,65.500000,49,64,52.500000,61.600000L52.500000,64.800000L60.200000,64.800000L60.200000,51.600000L60.200000,48.800000L60.200000,41.100000L52.500000,41.100000Z" fill="rgb(37,37,37)" stroke="none" stroke-width="1"></path><g id="evejzp0tg79l10_tr" transform="translate(79.300000,49.400000) rotate(0)"><path class="color" id="evejzp0tg79l10" d="M92.900000,49.300000C92.900000,47.400000,94.400000,45.800000,96.200000,45.600000L93.800000,39.900000C92.300000,41.100000,90.200000,41,88.800000,39.600000C87.400000,38.200000,87.400000,36.100000,88.500000,34.600000L83,32.300000C82.800000,34.200000,81.200000,35.600000,79.300000,35.600000C77.400000,35.600000,75.800000,34.100000,75.600000,32.300000L69.900000,34.700000C71.100000,36.200000,71,38.300000,69.600000,39.700000C68.200000,41.100000,66.100000,41.100000,64.600000,40L62.200000,45.700000C64.100000,45.900000,65.500000,47.500000,65.500000,49.400000C65.500000,51.300000,64,52.900000,62.200000,53.100000L64.600000,58.800000C66.100000,57.600000,68.200000,57.700000,69.600000,59.100000C71,60.500000,71,62.600000,69.900000,64.100000L75.600000,66.500000C75.800000,64.600000,77.400000,63.200000,79.300000,63.200000C81.200000,63.200000,82.800000,64.700000,83,66.500000L88.700000,64.100000C87.500000,62.600000,87.600000,60.500000,89,59.100000C90.400000,57.700000,92.500000,57.700000,94,58.800000L96.400000,53.100000C94.400000,52.800000,92.900000,51.200000,92.900000,49.300000ZM79.300000,57C75,57,71.600000,53.500000,71.600000,49.300000C71.600000,45,75.100000,41.600000,79.300000,41.600000C83.600000,41.600000,87,45.100000,87,49.300000C87,53.600000,83.500000,57,79.300000,57Z" transform="translate(-79.300000,-49.400000)" fill="#3CD4FF" stroke="none" stroke-width="1"></path></g></svg>